<?xml version="1.0" encoding="UTF-8"?>
<svg id="Layer_2" data-name="Layer 2" xmlns="http://www.w3.org/2000/svg" xmlns:xlink="http://www.w3.org/1999/xlink" viewBox="0 0 352 70">
  <defs>
    <clipPath id="clippath">
      <rect id="clipRect" x="148.41" y="12.48" width="44.9" height="45.29" fill="none"/>
    </clipPath>
  </defs>
  <g id="logoGroup">
    <rect id="dummy" width="352" height="70"/>
    <g id="kompot">
      <polygon points="230.14 53.48 236.13 53.48 228.06 32.92 236.13 16.52 230.27 16.52 222.72 32.53 222.72 16.52 216.87 16.52 216.87 53.48 222.72 53.48 222.72 42.03 224.55 38.64 230.14 53.48" fill="#3b3b3b"/>
      <path d="M247.45,16c-5.73,0-8.85,3.38-8.85,9.24v19.26c0,5.86,3.12,9.37,8.85,9.37s8.85-3.38,8.85-9.37v-19.26c0-5.86-3.12-9.24-8.85-9.24ZM250.45,44.89c0,2.6-1.17,3.64-2.99,3.64s-2.99-1.04-2.99-3.64v-19.91c0-2.6,1.17-3.64,2.99-3.64s2.99,1.04,2.99,3.64v19.91Z" fill="#3b3b3b"/>
      <polygon points="268.8 16.52 260.73 16.52 260.73 53.48 265.8 53.48 265.8 27.32 270.1 53.48 275.69 53.48 279.73 26.93 279.73 53.48 285.19 53.48 285.19 16.52 277.13 16.52 273.09 42.68 268.8 16.52" fill="#3b3b3b"/>
      <path d="M298.73,16.52h-8.59v36.96h5.86v-13.93h2.73c5.86,0,8.72-3.25,8.72-9.11v-4.82c0-5.86-2.86-9.11-8.72-9.11ZM301.59,30.84c0,2.6-1.04,3.51-2.86,3.51h-2.73v-12.49h2.73c1.82,0,2.86.78,2.86,3.51v5.6-.13Z" fill="#3b3b3b"/>
      <path d="M319.16,16c-5.73,0-8.85,3.38-8.85,9.24v19.26c0,5.86,3.12,9.37,8.85,9.37s8.85-3.38,8.85-9.37v-19.26c0-5.86-3.12-9.24-8.85-9.24ZM322.16,44.89c0,2.6-1.17,3.64-2.99,3.64s-2.99-1.04-2.99-3.64v-19.91c0-2.6,1.17-3.64,2.99-3.64s2.99,1.04,2.99,3.64v19.91Z" fill="#3b3b3b"/>
      <polygon points="330.75 21.72 336.86 21.72 336.86 53.48 342.59 53.48 342.59 21.72 348.71 21.72 348.71 16.52 330.75 16.52 330.75 21.72" fill="#3b3b3b"/>
    </g>
    <g id="logoIconGroup">
      <path id="logoFrame" d="M146.46,8.97h50.37v52.58h-52.19V8.97h1.82ZM193.31,12.48h-44.9v45.29h44.9V12.48Z" fill="#3b3b3b"/>
      <g id="clipGroup">
        <g clip-path="url(#clippath)">
          <g id="morphGroup">
            <path id="logoW" d="M173.01,50.49h6.38l3.38-30.58h-4.16l-2.47,24.34-2.34-24.34h-4.69l-2.34,24.08-2.6-24.08h-4.69l3.38,30.58h6.64l1.69-16.27,1.69,16.27h.13Z" fill="#3b3b3b"/>
            <g id="plum">
              <path d="M175.82,24.72c-.85.82-1.94,1.21-3.39,1.13.09-1.45.6-2.49,1.51-3.24.92-.75,2.25-1.26,3.96-1.64-.57,1.66-1.23,2.93-2.08,3.75M181.21,38.21c0-4.14-1.62-9.13-5.53-11.15,2.99-1.54,3.96-5.39,4.8-8.39-3.35.54-7.75,1.13-9.32,4.6-.38-1.04-.95-2.01-1.77-2.86l-1.59,1.5c1.11,1.15,1.77,2.41,2.02,3.86,2.43,2.07,3.99,4.81,4.51,7.97.52,3.19.07,6.93-2.06,9.48l-.95-.79c1.56-2.38,1.85-5.44,1.47-8.1-.48-3.34-2.15-6.01-4.82-7.95-5.25,1.12-7.47,7.01-7.47,11.85,0,5.95,4.07,12.32,10.35,12.99,6.28-.67,10.35-7.04,10.35-12.99Z" fill="#3b3b3b"/>
            </g>
          </g>
        </g>
      </g>
    </g>
    <g id="sliwka">
      <path d="M3.42,25.37c0,10.54,11.32,11.97,11.32,19.65s-1.17,3.64-2.99,3.64-2.99-.91-2.99-3.64v-2.6H3.29v2.21c0,5.86,2.99,9.37,8.72,9.37s8.72-3.38,8.72-9.37c0-10.54-11.32-11.97-11.32-19.65s1.04-3.64,2.86-3.64,2.86,1.04,2.86,3.64v1.56h5.47v-1.17c0-5.86-2.86-9.24-8.59-9.24s-8.59,3.38-8.59,9.24h0Z" fill="#3b3b3b"/>
      <polygon points="12.4 8.71 8.89 14.57 12.79 14.57 18.13 8.71 12.4 8.71" fill="#3b3b3b"/>
      <polygon points="24.64 53.48 39.99 53.48 39.99 48.28 30.49 48.28 30.49 16.52 24.64 16.52 24.64 53.48" fill="#3b3b3b"/>
      <rect x="43.25" y="16.52" width="5.86" height="36.96" fill="#3b3b3b"/>
      <polygon points="69.02 53.48 76.83 53.48 80.86 16.52 75.79 16.52 72.79 45.93 69.93 16.52 64.33 16.52 61.47 45.67 58.35 16.52 52.75 16.52 56.91 53.48 64.85 53.48 66.94 33.83 69.02 53.48" fill="#3b3b3b"/>
      <polygon points="97.78 53.48 103.77 53.48 95.7 33.05 103.77 16.52 97.91 16.52 90.36 32.66 90.36 16.52 84.51 16.52 84.51 53.48 90.36 53.48 90.36 42.16 92.18 38.77 97.78 53.48" fill="#3b3b3b"/>
      <path d="M120.04,16.52h-8.46l-5.86,36.96h5.34l1.04-6.77h7.16l1.04,6.77h5.86l-5.86-36.96h-.26ZM112.75,41.77l2.86-18.74,2.86,18.74h-5.73Z" fill="#3b3b3b"/>
    </g>
  </g>
</svg>